<?xml version="1.0" encoding="utf-8" standalone="no"?>
<!DOCTYPE svg PUBLIC "-//W3C//DTD SVG 1.1//EN"
  "http://www.w3.org/Graphics/SVG/1.1/DTD/svg11.dtd">
<svg xmlns:xlink="http://www.w3.org/1999/xlink" width="445.68pt" height="218.386719pt" viewBox="0 0 445.68 218.386719" xmlns="http://www.w3.org/2000/svg" version="1.1">
 <metadata>
  <rdf:RDF xmlns:dc="http://purl.org/dc/elements/1.1/" xmlns:cc="http://creativecommons.org/ns#" xmlns:rdf="http://www.w3.org/1999/02/22-rdf-syntax-ns#">
   <cc:Work>
    <dc:type rdf:resource="http://purl.org/dc/dcmitype/StillImage"/>
    <dc:date>2026-09-19T10:30:25.660278</dc:date>
    <dc:format>image/svg+xml</dc:format>
    <dc:creator>
     <cc:Agent>
      <dc:title>Matplotlib v3.10.9, https://matplotlib.org/</dc:title>
     </cc:Agent>
    </dc:creator>
   </cc:Work>
  </rdf:RDF>
 </metadata>
 <defs>
  <style type="text/css">*{stroke-linejoin: round; stroke-linecap: butt}</style>
 </defs>
 <g id="figure_1">
  <g id="patch_1">
   <path d="M 0 218.386719 
L 445.68 218.386719 
L 445.68 0 
L 0 0 
z
" style="fill: #ffffff"/>
  </g>
  <g id="axes_1">
   <g id="line2d_1">
    <path d="M 149.95125 191.021094 
L 149.95125 65.122344 
" clip-path="url(#p9981ea3afc)" style="fill: none; stroke: #000000; stroke-width: 3; stroke-linecap: square"/>
   </g>
   <g id="text_1">
    <!-- free stream $v$ -->
    <g transform="translate(33.31125 65.122344) scale(0.11 -0.11)">
     <defs>
      <path id="DejaVuSans-66" d="M 2375 4863 
L 2375 4384 
L 1825 4384 
Q 1516 4384 1395 4259 
Q 1275 4134 1275 3809 
L 1275 3500 
L 2222 3500 
L 2222 3053 
L 1275 3053 
L 1275 0 
L 697 0 
L 697 3053 
L 147 3053 
L 147 3500 
L 697 3500 
L 697 3744 
Q 697 4328 969 4595 
Q 1241 4863 1831 4863 
L 2375 4863 
z
" transform="scale(0.015625)"/>
      <path id="DejaVuSans-72" d="M 2631 2963 
Q 2534 3019 2420 3045 
Q 2306 3072 2169 3072 
Q 1681 3072 1420 2755 
Q 1159 2438 1159 1844 
L 1159 0 
L 581 0 
L 581 3500 
L 1159 3500 
L 1159 2956 
Q 1341 3275 1631 3429 
Q 1922 3584 2338 3584 
Q 2397 3584 2469 3576 
Q 2541 3569 2628 3553 
L 2631 2963 
z
" transform="scale(0.015625)"/>
      <path id="DejaVuSans-65" d="M 3597 1894 
L 3597 1613 
L 953 1613 
Q 991 1019 1311 708 
Q 1631 397 2203 397 
Q 2534 397 2845 478 
Q 3156 559 3463 722 
L 3463 178 
Q 3153 47 2828 -22 
Q 2503 -91 2169 -91 
Q 1331 -91 842 396 
Q 353 884 353 1716 
Q 353 2575 817 3079 
Q 1281 3584 2069 3584 
Q 2775 3584 3186 3129 
Q 3597 2675 3597 1894 
z
M 3022 2063 
Q 3016 2534 2758 2815 
Q 2500 3097 2075 3097 
Q 1594 3097 1305 2825 
Q 1016 2553 972 2059 
L 3022 2063 
z
" transform="scale(0.015625)"/>
      <path id="DejaVuSans-20" transform="scale(0.015625)"/>
      <path id="DejaVuSans-73" d="M 2834 3397 
L 2834 2853 
Q 2591 2978 2328 3040 
Q 2066 3103 1784 3103 
Q 1356 3103 1142 2972 
Q 928 2841 928 2578 
Q 928 2378 1081 2264 
Q 1234 2150 1697 2047 
L 1894 2003 
Q 2506 1872 2764 1633 
Q 3022 1394 3022 966 
Q 3022 478 2636 193 
Q 2250 -91 1575 -91 
Q 1294 -91 989 -36 
Q 684 19 347 128 
L 347 722 
Q 666 556 975 473 
Q 1284 391 1588 391 
Q 1994 391 2212 530 
Q 2431 669 2431 922 
Q 2431 1156 2273 1281 
Q 2116 1406 1581 1522 
L 1381 1569 
Q 847 1681 609 1914 
Q 372 2147 372 2553 
Q 372 3047 722 3315 
Q 1072 3584 1716 3584 
Q 2034 3584 2315 3537 
Q 2597 3491 2834 3397 
z
" transform="scale(0.015625)"/>
      <path id="DejaVuSans-74" d="M 1172 4494 
L 1172 3500 
L 2356 3500 
L 2356 3053 
L 1172 3053 
L 1172 1153 
Q 1172 725 1289 603 
Q 1406 481 1766 481 
L 2356 481 
L 2356 0 
L 1766 0 
Q 1100 0 847 248 
Q 594 497 594 1153 
L 594 3053 
L 172 3053 
L 172 3500 
L 594 3500 
L 594 4494 
L 1172 4494 
z
" transform="scale(0.015625)"/>
      <path id="DejaVuSans-61" d="M 2194 1759 
Q 1497 1759 1228 1600 
Q 959 1441 959 1056 
Q 959 750 1161 570 
Q 1363 391 1709 391 
Q 2188 391 2477 730 
Q 2766 1069 2766 1631 
L 2766 1759 
L 2194 1759 
z
M 3341 1997 
L 3341 0 
L 2766 0 
L 2766 531 
Q 2569 213 2275 61 
Q 1981 -91 1556 -91 
Q 1019 -91 701 211 
Q 384 513 384 1019 
Q 384 1609 779 1909 
Q 1175 2209 1959 2209 
L 2766 2209 
L 2766 2266 
Q 2766 2663 2505 2880 
Q 2244 3097 1772 3097 
Q 1472 3097 1187 3025 
Q 903 2953 641 2809 
L 641 3341 
Q 956 3463 1253 3523 
Q 1550 3584 1831 3584 
Q 2591 3584 2966 3190 
Q 3341 2797 3341 1997 
z
" transform="scale(0.015625)"/>
      <path id="DejaVuSans-6d" d="M 3328 2828 
Q 3544 3216 3844 3400 
Q 4144 3584 4550 3584 
Q 5097 3584 5394 3201 
Q 5691 2819 5691 2113 
L 5691 0 
L 5113 0 
L 5113 2094 
Q 5113 2597 4934 2840 
Q 4756 3084 4391 3084 
Q 3944 3084 3684 2787 
Q 3425 2491 3425 1978 
L 3425 0 
L 2847 0 
L 2847 2094 
Q 2847 2600 2669 2842 
Q 2491 3084 2119 3084 
Q 1678 3084 1418 2786 
Q 1159 2488 1159 1978 
L 1159 0 
L 581 0 
L 581 3500 
L 1159 3500 
L 1159 2956 
Q 1356 3278 1631 3431 
Q 1906 3584 2284 3584 
Q 2666 3584 2933 3390 
Q 3200 3197 3328 2828 
z
" transform="scale(0.015625)"/>
      <path id="DejaVuSans-Oblique-76" d="M 459 3500 
L 1069 3500 
L 1581 525 
L 3256 3500 
L 3866 3500 
L 1875 0 
L 1100 0 
L 459 3500 
z
" transform="scale(0.015625)"/>
     </defs>
     <use xlink:href="#DejaVuSans-66" transform="translate(0 0.015625)"/>
     <use xlink:href="#DejaVuSans-72" transform="translate(35.205078 0.015625)"/>
     <use xlink:href="#DejaVuSans-65" transform="translate(76.318359 0.015625)"/>
     <use xlink:href="#DejaVuSans-65" transform="translate(137.841797 0.015625)"/>
     <use xlink:href="#DejaVuSans-20" transform="translate(199.365234 0.015625)"/>
     <use xlink:href="#DejaVuSans-73" transform="translate(231.152344 0.015625)"/>
     <use xlink:href="#DejaVuSans-74" transform="translate(283.251953 0.015625)"/>
     <use xlink:href="#DejaVuSans-72" transform="translate(322.460938 0.015625)"/>
     <use xlink:href="#DejaVuSans-65" transform="translate(363.574219 0.015625)"/>
     <use xlink:href="#DejaVuSans-61" transform="translate(425.097656 0.015625)"/>
     <use xlink:href="#DejaVuSans-6d" transform="translate(486.376953 0.015625)"/>
     <use xlink:href="#DejaVuSans-20" transform="translate(583.789062 0.015625)"/>
     <use xlink:href="#DejaVuSans-Oblique-76" transform="translate(615.576172 0.015625)"/>
    </g>
   </g>
   <g id="text_2">
    <!-- facing -->
    <g transform="translate(173.143125 125.232188) scale(0.1 -0.1)">
     <defs>
      <path id="DejaVuSans-63" d="M 3122 3366 
L 3122 2828 
Q 2878 2963 2633 3030 
Q 2388 3097 2138 3097 
Q 1578 3097 1268 2742 
Q 959 2388 959 1747 
Q 959 1106 1268 751 
Q 1578 397 2138 397 
Q 2388 397 2633 464 
Q 2878 531 3122 666 
L 3122 134 
Q 2881 22 2623 -34 
Q 2366 -91 2075 -91 
Q 1284 -91 818 406 
Q 353 903 353 1747 
Q 353 2603 823 3093 
Q 1294 3584 2113 3584 
Q 2378 3584 2631 3529 
Q 2884 3475 3122 3366 
z
" transform="scale(0.015625)"/>
      <path id="DejaVuSans-69" d="M 603 3500 
L 1178 3500 
L 1178 0 
L 603 0 
L 603 3500 
z
M 603 4863 
L 1178 4863 
L 1178 4134 
L 603 4134 
L 603 4863 
z
" transform="scale(0.015625)"/>
      <path id="DejaVuSans-6e" d="M 3513 2113 
L 3513 0 
L 2938 0 
L 2938 2094 
Q 2938 2591 2744 2837 
Q 2550 3084 2163 3084 
Q 1697 3084 1428 2787 
Q 1159 2491 1159 1978 
L 1159 0 
L 581 0 
L 581 3500 
L 1159 3500 
L 1159 2956 
Q 1366 3272 1645 3428 
Q 1925 3584 2291 3584 
Q 2894 3584 3203 3211 
Q 3513 2838 3513 2113 
z
" transform="scale(0.015625)"/>
      <path id="DejaVuSans-67" d="M 2906 1791 
Q 2906 2416 2648 2759 
Q 2391 3103 1925 3103 
Q 1463 3103 1205 2759 
Q 947 2416 947 1791 
Q 947 1169 1205 825 
Q 1463 481 1925 481 
Q 2391 481 2648 825 
Q 2906 1169 2906 1791 
z
M 3481 434 
Q 3481 -459 3084 -895 
Q 2688 -1331 1869 -1331 
Q 1566 -1331 1297 -1286 
Q 1028 -1241 775 -1147 
L 775 -588 
Q 1028 -725 1275 -790 
Q 1522 -856 1778 -856 
Q 2344 -856 2625 -561 
Q 2906 -266 2906 331 
L 2906 616 
Q 2728 306 2450 153 
Q 2172 0 1784 0 
Q 1141 0 747 490 
Q 353 981 353 1791 
Q 353 2603 747 3093 
Q 1141 3584 1784 3584 
Q 2172 3584 2450 3431 
Q 2728 3278 2906 2969 
L 2906 3500 
L 3481 3500 
L 3481 434 
z
" transform="scale(0.015625)"/>
     </defs>
     <use xlink:href="#DejaVuSans-66"/>
     <use xlink:href="#DejaVuSans-61" transform="translate(35.205078 0)"/>
     <use xlink:href="#DejaVuSans-63" transform="translate(96.484375 0)"/>
     <use xlink:href="#DejaVuSans-69" transform="translate(151.464844 0)"/>
     <use xlink:href="#DejaVuSans-6e" transform="translate(179.248047 0)"/>
     <use xlink:href="#DejaVuSans-67" transform="translate(242.626953 0)"/>
    </g>
    <!-- area $A$ -->
    <g transform="translate(173.143125 136.43) scale(0.1 -0.1)">
     <defs>
      <path id="DejaVuSans-Oblique-41" d="M 2356 4666 
L 3072 4666 
L 3938 0 
L 3278 0 
L 3084 1197 
L 984 1197 
L 325 0 
L -341 0 
L 2356 4666 
z
M 2584 4044 
L 1275 1722 
L 2988 1722 
L 2584 4044 
z
" transform="scale(0.015625)"/>
     </defs>
     <use xlink:href="#DejaVuSans-61" transform="translate(0 0.09375)"/>
     <use xlink:href="#DejaVuSans-72" transform="translate(61.279297 0.09375)"/>
     <use xlink:href="#DejaVuSans-65" transform="translate(102.392578 0.09375)"/>
     <use xlink:href="#DejaVuSans-61" transform="translate(163.916016 0.09375)"/>
     <use xlink:href="#DejaVuSans-20" transform="translate(225.195312 0.09375)"/>
     <use xlink:href="#DejaVuSans-Oblique-41" transform="translate(256.982422 0.09375)"/>
    </g>
   </g>
   <g id="text_3">
    <!-- $q\equiv\frac{1}{2}\rho v^{2}$ -->
    <g transform="translate(284.2575 81.687969) scale(0.15 -0.15)">
     <defs>
      <path id="DejaVuSans-Oblique-71" d="M 2669 525 
Q 2438 222 2123 65 
Q 1809 -91 1428 -91 
Q 897 -91 595 267 
Q 294 625 294 1253 
Q 294 1759 480 2231 
Q 666 2703 1013 3078 
Q 1238 3322 1530 3453 
Q 1822 3584 2144 3584 
Q 2531 3584 2781 3431 
Q 3031 3278 3144 2969 
L 3244 3494 
L 3822 3494 
L 2888 -1319 
L 2309 -1319 
L 2669 525 
z
M 891 1338 
Q 891 875 1084 633 
Q 1278 391 1644 391 
Q 2188 391 2572 911 
Q 2956 1431 2956 2175 
Q 2956 2625 2757 2864 
Q 2559 3103 2188 3103 
Q 1916 3103 1684 2976 
Q 1453 2850 1281 2606 
Q 1100 2350 995 2006 
Q 891 1663 891 1338 
z
" transform="scale(0.015625)"/>
      <path id="DejaVuSans-2261" d="M 678 2272 
L 4684 2272 
L 4684 1741 
L 678 1741 
L 678 2272 
z
M 678 3438 
L 4684 3438 
L 4684 2906 
L 678 2906 
L 678 3438 
z
M 678 1106 
L 4684 1106 
L 4684 575 
L 678 575 
L 678 1106 
z
" transform="scale(0.015625)"/>
      <path id="DejaVuSans-31" d="M 794 531 
L 1825 531 
L 1825 4091 
L 703 3866 
L 703 4441 
L 1819 4666 
L 2450 4666 
L 2450 531 
L 3481 531 
L 3481 0 
L 794 0 
L 794 531 
z
" transform="scale(0.015625)"/>
      <path id="DejaVuSans-32" d="M 1228 531 
L 3431 531 
L 3431 0 
L 469 0 
L 469 531 
Q 828 903 1448 1529 
Q 2069 2156 2228 2338 
Q 2531 2678 2651 2914 
Q 2772 3150 2772 3378 
Q 2772 3750 2511 3984 
Q 2250 4219 1831 4219 
Q 1534 4219 1204 4116 
Q 875 4013 500 3803 
L 500 4441 
Q 881 4594 1212 4672 
Q 1544 4750 1819 4750 
Q 2544 4750 2975 4387 
Q 3406 4025 3406 3419 
Q 3406 3131 3298 2873 
Q 3191 2616 2906 2266 
Q 2828 2175 2409 1742 
Q 1991 1309 1228 531 
z
" transform="scale(0.015625)"/>
      <path id="DejaVuSans-Oblique-3c1" d="M 1203 2875 
Q 1453 3194 1981 3475 
Q 2188 3584 2756 3584 
Q 3394 3584 3694 3078 
Q 3994 2572 3834 1747 
Q 3672 922 3175 415 
Q 2678 -91 2041 -91 
Q 1656 -91 1409 63 
Q 1163 213 1044 525 
L 681 -1331 
L 103 -1331 
L 697 1716 
Q 838 2438 1203 2875 
z
M 3238 1747 
Q 3359 2381 3169 2744 
Q 2978 3103 2522 3103 
Q 2066 3103 1734 2744 
Q 1403 2381 1281 1747 
Q 1156 1113 1347 750 
Q 1538 391 1994 391 
Q 2450 391 2781 750 
Q 3113 1113 3238 1747 
z
" transform="scale(0.015625)"/>
     </defs>
     <use xlink:href="#DejaVuSans-Oblique-71" transform="translate(0 0.16875)"/>
     <use xlink:href="#DejaVuSans-2261" transform="translate(82.958984 0.16875)"/>
     <use xlink:href="#DejaVuSans-31" transform="translate(186.230469 43.965625) scale(0.7)"/>
     <use xlink:href="#DejaVuSans-32" transform="translate(186.230469 -39.2375) scale(0.7)"/>
     <use xlink:href="#DejaVuSans-Oblique-3c1" transform="translate(243.266602 0.16875)"/>
     <use xlink:href="#DejaVuSans-Oblique-76" transform="translate(306.743164 0.16875)"/>
     <use xlink:href="#DejaVuSans-32" transform="translate(370.388997 38.45) scale(0.7)"/>
     <path d="M 186.230469 18.965625 
L 186.230469 25.215625 
L 230.766602 25.215625 
L 230.766602 18.965625 
L 186.230469 18.965625 
z
"/>
    </g>
   </g>
   <g id="text_4">
    <!-- characteristic inertial -->
    <g transform="translate(262.491094 113.560781) scale(0.1 -0.1)">
     <defs>
      <path id="DejaVuSans-68" d="M 3513 2113 
L 3513 0 
L 2938 0 
L 2938 2094 
Q 2938 2591 2744 2837 
Q 2550 3084 2163 3084 
Q 1697 3084 1428 2787 
Q 1159 2491 1159 1978 
L 1159 0 
L 581 0 
L 581 4863 
L 1159 4863 
L 1159 2956 
Q 1366 3272 1645 3428 
Q 1925 3584 2291 3584 
Q 2894 3584 3203 3211 
Q 3513 2838 3513 2113 
z
" transform="scale(0.015625)"/>
      <path id="DejaVuSans-6c" d="M 603 4863 
L 1178 4863 
L 1178 0 
L 603 0 
L 603 4863 
z
" transform="scale(0.015625)"/>
     </defs>
     <use xlink:href="#DejaVuSans-63"/>
     <use xlink:href="#DejaVuSans-68" transform="translate(54.980469 0)"/>
     <use xlink:href="#DejaVuSans-61" transform="translate(118.359375 0)"/>
     <use xlink:href="#DejaVuSans-72" transform="translate(179.638672 0)"/>
     <use xlink:href="#DejaVuSans-61" transform="translate(220.751953 0)"/>
     <use xlink:href="#DejaVuSans-63" transform="translate(282.03125 0)"/>
     <use xlink:href="#DejaVuSans-74" transform="translate(337.011719 0)"/>
     <use xlink:href="#DejaVuSans-65" transform="translate(376.220703 0)"/>
     <use xlink:href="#DejaVuSans-72" transform="translate(437.744141 0)"/>
     <use xlink:href="#DejaVuSans-69" transform="translate(478.857422 0)"/>
     <use xlink:href="#DejaVuSans-73" transform="translate(506.640625 0)"/>
     <use xlink:href="#DejaVuSans-74" transform="translate(558.740234 0)"/>
     <use xlink:href="#DejaVuSans-69" transform="translate(597.949219 0)"/>
     <use xlink:href="#DejaVuSans-63" transform="translate(625.732422 0)"/>
     <use xlink:href="#DejaVuSans-20" transform="translate(680.712891 0)"/>
     <use xlink:href="#DejaVuSans-69" transform="translate(712.5 0)"/>
     <use xlink:href="#DejaVuSans-6e" transform="translate(740.283203 0)"/>
     <use xlink:href="#DejaVuSans-65" transform="translate(803.662109 0)"/>
     <use xlink:href="#DejaVuSans-72" transform="translate(865.185547 0)"/>
     <use xlink:href="#DejaVuSans-74" transform="translate(906.298828 0)"/>
     <use xlink:href="#DejaVuSans-69" transform="translate(945.507812 0)"/>
     <use xlink:href="#DejaVuSans-61" transform="translate(973.291016 0)"/>
     <use xlink:href="#DejaVuSans-6c" transform="translate(1034.570312 0)"/>
    </g>
    <!-- pressure scale (Pa) -->
    <g transform="translate(268.198906 124.758594) scale(0.1 -0.1)">
     <defs>
      <path id="DejaVuSans-70" d="M 1159 525 
L 1159 -1331 
L 581 -1331 
L 581 3500 
L 1159 3500 
L 1159 2969 
Q 1341 3281 1617 3432 
Q 1894 3584 2278 3584 
Q 2916 3584 3314 3078 
Q 3713 2572 3713 1747 
Q 3713 922 3314 415 
Q 2916 -91 2278 -91 
Q 1894 -91 1617 61 
Q 1341 213 1159 525 
z
M 3116 1747 
Q 3116 2381 2855 2742 
Q 2594 3103 2138 3103 
Q 1681 3103 1420 2742 
Q 1159 2381 1159 1747 
Q 1159 1113 1420 752 
Q 1681 391 2138 391 
Q 2594 391 2855 752 
Q 3116 1113 3116 1747 
z
" transform="scale(0.015625)"/>
      <path id="DejaVuSans-75" d="M 544 1381 
L 544 3500 
L 1119 3500 
L 1119 1403 
Q 1119 906 1312 657 
Q 1506 409 1894 409 
Q 2359 409 2629 706 
Q 2900 1003 2900 1516 
L 2900 3500 
L 3475 3500 
L 3475 0 
L 2900 0 
L 2900 538 
Q 2691 219 2414 64 
Q 2138 -91 1772 -91 
Q 1169 -91 856 284 
Q 544 659 544 1381 
z
M 1991 3584 
L 1991 3584 
z
" transform="scale(0.015625)"/>
      <path id="DejaVuSans-28" d="M 1984 4856 
Q 1566 4138 1362 3434 
Q 1159 2731 1159 2009 
Q 1159 1288 1364 580 
Q 1569 -128 1984 -844 
L 1484 -844 
Q 1016 -109 783 600 
Q 550 1309 550 2009 
Q 550 2706 781 3412 
Q 1013 4119 1484 4856 
L 1984 4856 
z
" transform="scale(0.015625)"/>
      <path id="DejaVuSans-50" d="M 1259 4147 
L 1259 2394 
L 2053 2394 
Q 2494 2394 2734 2622 
Q 2975 2850 2975 3272 
Q 2975 3691 2734 3919 
Q 2494 4147 2053 4147 
L 1259 4147 
z
M 628 4666 
L 2053 4666 
Q 2838 4666 3239 4311 
Q 3641 3956 3641 3272 
Q 3641 2581 3239 2228 
Q 2838 1875 2053 1875 
L 1259 1875 
L 1259 0 
L 628 0 
L 628 4666 
z
" transform="scale(0.015625)"/>
      <path id="DejaVuSans-29" d="M 513 4856 
L 1013 4856 
Q 1481 4119 1714 3412 
Q 1947 2706 1947 2009 
Q 1947 1309 1714 600 
Q 1481 -109 1013 -844 
L 513 -844 
Q 928 -128 1133 580 
Q 1338 1288 1338 2009 
Q 1338 2731 1133 3434 
Q 928 4138 513 4856 
z
" transform="scale(0.015625)"/>
     </defs>
     <use xlink:href="#DejaVuSans-70"/>
     <use xlink:href="#DejaVuSans-72" transform="translate(63.476562 0)"/>
     <use xlink:href="#DejaVuSans-65" transform="translate(102.339844 0)"/>
     <use xlink:href="#DejaVuSans-73" transform="translate(163.863281 0)"/>
     <use xlink:href="#DejaVuSans-73" transform="translate(215.962891 0)"/>
     <use xlink:href="#DejaVuSans-75" transform="translate(268.0625 0)"/>
     <use xlink:href="#DejaVuSans-72" transform="translate(331.441406 0)"/>
     <use xlink:href="#DejaVuSans-65" transform="translate(370.304688 0)"/>
     <use xlink:href="#DejaVuSans-20" transform="translate(431.828125 0)"/>
     <use xlink:href="#DejaVuSans-73" transform="translate(463.615234 0)"/>
     <use xlink:href="#DejaVuSans-63" transform="translate(515.714844 0)"/>
     <use xlink:href="#DejaVuSans-61" transform="translate(570.695312 0)"/>
     <use xlink:href="#DejaVuSans-6c" transform="translate(631.974609 0)"/>
     <use xlink:href="#DejaVuSans-65" transform="translate(659.757812 0)"/>
     <use xlink:href="#DejaVuSans-20" transform="translate(721.28125 0)"/>
     <use xlink:href="#DejaVuSans-28" transform="translate(753.068359 0)"/>
     <use xlink:href="#DejaVuSans-50" transform="translate(792.082031 0)"/>
     <use xlink:href="#DejaVuSans-61" transform="translate(847.884766 0)"/>
     <use xlink:href="#DejaVuSans-29" transform="translate(909.164062 0)"/>
    </g>
   </g>
   <g id="text_5">
    <!-- $F\sim q A$  before $C_D,C_L$ -->
    <g transform="translate(254.3475 177.768594) scale(0.12 -0.12)">
     <defs>
      <path id="DejaVuSans-Oblique-46" d="M 1081 4666 
L 3756 4666 
L 3653 4134 
L 1606 4134 
L 1338 2759 
L 3188 2759 
L 3084 2228 
L 1234 2228 
L 800 0 
L 172 0 
L 1081 4666 
z
" transform="scale(0.015625)"/>
      <path id="DejaVuSans-223c" d="M 4684 2556 
L 4684 1997 
Q 4356 1753 4076 1645 
Q 3797 1538 3494 1538 
Q 3150 1538 2694 1722 
Q 2663 1734 2641 1744 
Q 2622 1750 2575 1769 
Q 2091 1959 1797 1959 
Q 1522 1959 1253 1840 
Q 984 1722 678 1459 
L 678 2019 
Q 1006 2263 1286 2370 
Q 1566 2478 1869 2478 
Q 2213 2478 2672 2294 
Q 2706 2278 2722 2272 
Q 2741 2266 2788 2247 
Q 3272 2056 3566 2056 
Q 3834 2056 4098 2173 
Q 4363 2291 4684 2556 
z
" transform="scale(0.015625)"/>
      <path id="DejaVuSans-62" d="M 3116 1747 
Q 3116 2381 2855 2742 
Q 2594 3103 2138 3103 
Q 1681 3103 1420 2742 
Q 1159 2381 1159 1747 
Q 1159 1113 1420 752 
Q 1681 391 2138 391 
Q 2594 391 2855 752 
Q 3116 1113 3116 1747 
z
M 1159 2969 
Q 1341 3281 1617 3432 
Q 1894 3584 2278 3584 
Q 2916 3584 3314 3078 
Q 3713 2572 3713 1747 
Q 3713 922 3314 415 
Q 2916 -91 2278 -91 
Q 1894 -91 1617 61 
Q 1341 213 1159 525 
L 1159 0 
L 581 0 
L 581 4863 
L 1159 4863 
L 1159 2969 
z
" transform="scale(0.015625)"/>
      <path id="DejaVuSans-6f" d="M 1959 3097 
Q 1497 3097 1228 2736 
Q 959 2375 959 1747 
Q 959 1119 1226 758 
Q 1494 397 1959 397 
Q 2419 397 2687 759 
Q 2956 1122 2956 1747 
Q 2956 2369 2687 2733 
Q 2419 3097 1959 3097 
z
M 1959 3584 
Q 2709 3584 3137 3096 
Q 3566 2609 3566 1747 
Q 3566 888 3137 398 
Q 2709 -91 1959 -91 
Q 1206 -91 779 398 
Q 353 888 353 1747 
Q 353 2609 779 3096 
Q 1206 3584 1959 3584 
z
" transform="scale(0.015625)"/>
      <path id="DejaVuSans-Oblique-43" d="M 4447 4306 
L 4319 3641 
Q 4019 3944 3683 4091 
Q 3347 4238 2956 4238 
Q 2422 4238 2017 3981 
Q 1613 3725 1319 3200 
Q 1131 2863 1032 2486 
Q 934 2109 934 1728 
Q 934 1091 1264 756 
Q 1594 422 2222 422 
Q 2656 422 3056 561 
Q 3456 700 3834 978 
L 3688 231 
Q 3316 72 2936 -9 
Q 2556 -91 2175 -91 
Q 1278 -91 773 396 
Q 269 884 269 1753 
Q 269 2309 461 2846 
Q 653 3384 1013 3828 
Q 1394 4300 1883 4525 
Q 2372 4750 3022 4750 
Q 3422 4750 3780 4639 
Q 4138 4528 4447 4306 
z
" transform="scale(0.015625)"/>
      <path id="DejaVuSans-Oblique-44" d="M 1081 4666 
L 2438 4666 
Q 3519 4666 4070 4208 
Q 4622 3750 4622 2847 
Q 4622 2250 4412 1698 
Q 4203 1147 3834 769 
Q 3463 381 2891 190 
Q 2319 0 1538 0 
L 172 0 
L 1081 4666 
z
M 1613 4147 
L 909 519 
L 1734 519 
Q 2794 519 3375 1128 
Q 3956 1738 3956 2847 
Q 3956 3519 3581 3833 
Q 3206 4147 2406 4147 
L 1613 4147 
z
" transform="scale(0.015625)"/>
      <path id="DejaVuSans-2c" d="M 750 794 
L 1409 794 
L 1409 256 
L 897 -744 
L 494 -744 
L 750 256 
L 750 794 
z
" transform="scale(0.015625)"/>
      <path id="DejaVuSans-Oblique-4c" d="M 1075 4666 
L 1709 4666 
L 909 525 
L 3181 525 
L 3078 0 
L 172 0 
L 1075 4666 
z
" transform="scale(0.015625)"/>
     </defs>
     <use xlink:href="#DejaVuSans-Oblique-46" transform="translate(0 0.015625)"/>
     <use xlink:href="#DejaVuSans-223c" transform="translate(77.001953 0.015625)"/>
     <use xlink:href="#DejaVuSans-Oblique-71" transform="translate(180.273438 0.015625)"/>
     <use xlink:href="#DejaVuSans-Oblique-41" transform="translate(243.75 0.015625)"/>
     <use xlink:href="#DejaVuSans-20" transform="translate(312.158203 0.015625)"/>
     <use xlink:href="#DejaVuSans-20" transform="translate(343.945312 0.015625)"/>
     <use xlink:href="#DejaVuSans-62" transform="translate(375.732422 0.015625)"/>
     <use xlink:href="#DejaVuSans-65" transform="translate(439.208984 0.015625)"/>
     <use xlink:href="#DejaVuSans-66" transform="translate(500.732422 0.015625)"/>
     <use xlink:href="#DejaVuSans-6f" transform="translate(535.9375 0.015625)"/>
     <use xlink:href="#DejaVuSans-72" transform="translate(597.119141 0.015625)"/>
     <use xlink:href="#DejaVuSans-65" transform="translate(638.232422 0.015625)"/>
     <use xlink:href="#DejaVuSans-20" transform="translate(699.755859 0.015625)"/>
     <use xlink:href="#DejaVuSans-Oblique-43" transform="translate(731.542969 0.015625)"/>
     <use xlink:href="#DejaVuSans-Oblique-44" transform="translate(801.367188 -16.390625) scale(0.7)"/>
     <use xlink:href="#DejaVuSans-2c" transform="translate(858.00293 0.015625)"/>
     <use xlink:href="#DejaVuSans-Oblique-43" transform="translate(909.272461 0.015625)"/>
     <use xlink:href="#DejaVuSans-Oblique-4c" transform="translate(979.09668 -16.390625) scale(0.7)"/>
    </g>
   </g>
   <g id="text_6">
    <!-- Dynamic pressure is the scale of aero loading -->
    <g transform="translate(74.341406 20.677969) scale(0.13 -0.13)">
     <defs>
      <path id="DejaVuSans-44" d="M 1259 4147 
L 1259 519 
L 2022 519 
Q 2988 519 3436 956 
Q 3884 1394 3884 2338 
Q 3884 3275 3436 3711 
Q 2988 4147 2022 4147 
L 1259 4147 
z
M 628 4666 
L 1925 4666 
Q 3281 4666 3915 4102 
Q 4550 3538 4550 2338 
Q 4550 1131 3912 565 
Q 3275 0 1925 0 
L 628 0 
L 628 4666 
z
" transform="scale(0.015625)"/>
      <path id="DejaVuSans-79" d="M 2059 -325 
Q 1816 -950 1584 -1140 
Q 1353 -1331 966 -1331 
L 506 -1331 
L 506 -850 
L 844 -850 
Q 1081 -850 1212 -737 
Q 1344 -625 1503 -206 
L 1606 56 
L 191 3500 
L 800 3500 
L 1894 763 
L 2988 3500 
L 3597 3500 
L 2059 -325 
z
" transform="scale(0.015625)"/>
      <path id="DejaVuSans-64" d="M 2906 2969 
L 2906 4863 
L 3481 4863 
L 3481 0 
L 2906 0 
L 2906 525 
Q 2725 213 2448 61 
Q 2172 -91 1784 -91 
Q 1150 -91 751 415 
Q 353 922 353 1747 
Q 353 2572 751 3078 
Q 1150 3584 1784 3584 
Q 2172 3584 2448 3432 
Q 2725 3281 2906 2969 
z
M 947 1747 
Q 947 1113 1208 752 
Q 1469 391 1925 391 
Q 2381 391 2643 752 
Q 2906 1113 2906 1747 
Q 2906 2381 2643 2742 
Q 2381 3103 1925 3103 
Q 1469 3103 1208 2742 
Q 947 2381 947 1747 
z
" transform="scale(0.015625)"/>
     </defs>
     <use xlink:href="#DejaVuSans-44"/>
     <use xlink:href="#DejaVuSans-79" transform="translate(77.001953 0)"/>
     <use xlink:href="#DejaVuSans-6e" transform="translate(136.181641 0)"/>
     <use xlink:href="#DejaVuSans-61" transform="translate(199.560547 0)"/>
     <use xlink:href="#DejaVuSans-6d" transform="translate(260.839844 0)"/>
     <use xlink:href="#DejaVuSans-69" transform="translate(358.251953 0)"/>
     <use xlink:href="#DejaVuSans-63" transform="translate(386.035156 0)"/>
     <use xlink:href="#DejaVuSans-20" transform="translate(441.015625 0)"/>
     <use xlink:href="#DejaVuSans-70" transform="translate(472.802734 0)"/>
     <use xlink:href="#DejaVuSans-72" transform="translate(536.279297 0)"/>
     <use xlink:href="#DejaVuSans-65" transform="translate(575.142578 0)"/>
     <use xlink:href="#DejaVuSans-73" transform="translate(636.666016 0)"/>
     <use xlink:href="#DejaVuSans-73" transform="translate(688.765625 0)"/>
     <use xlink:href="#DejaVuSans-75" transform="translate(740.865234 0)"/>
     <use xlink:href="#DejaVuSans-72" transform="translate(804.244141 0)"/>
     <use xlink:href="#DejaVuSans-65" transform="translate(843.107422 0)"/>
     <use xlink:href="#DejaVuSans-20" transform="translate(904.630859 0)"/>
     <use xlink:href="#DejaVuSans-69" transform="translate(936.417969 0)"/>
     <use xlink:href="#DejaVuSans-73" transform="translate(964.201172 0)"/>
     <use xlink:href="#DejaVuSans-20" transform="translate(1016.300781 0)"/>
     <use xlink:href="#DejaVuSans-74" transform="translate(1048.087891 0)"/>
     <use xlink:href="#DejaVuSans-68" transform="translate(1087.296875 0)"/>
     <use xlink:href="#DejaVuSans-65" transform="translate(1150.675781 0)"/>
     <use xlink:href="#DejaVuSans-20" transform="translate(1212.199219 0)"/>
     <use xlink:href="#DejaVuSans-73" transform="translate(1243.986328 0)"/>
     <use xlink:href="#DejaVuSans-63" transform="translate(1296.085938 0)"/>
     <use xlink:href="#DejaVuSans-61" transform="translate(1351.066406 0)"/>
     <use xlink:href="#DejaVuSans-6c" transform="translate(1412.345703 0)"/>
     <use xlink:href="#DejaVuSans-65" transform="translate(1440.128906 0)"/>
     <use xlink:href="#DejaVuSans-20" transform="translate(1501.652344 0)"/>
     <use xlink:href="#DejaVuSans-6f" transform="translate(1533.439453 0)"/>
     <use xlink:href="#DejaVuSans-66" transform="translate(1594.621094 0)"/>
     <use xlink:href="#DejaVuSans-20" transform="translate(1629.826172 0)"/>
     <use xlink:href="#DejaVuSans-61" transform="translate(1661.613281 0)"/>
     <use xlink:href="#DejaVuSans-65" transform="translate(1722.892578 0)"/>
     <use xlink:href="#DejaVuSans-72" transform="translate(1784.416016 0)"/>
     <use xlink:href="#DejaVuSans-6f" transform="translate(1823.279297 0)"/>
     <use xlink:href="#DejaVuSans-20" transform="translate(1884.460938 0)"/>
     <use xlink:href="#DejaVuSans-6c" transform="translate(1916.248047 0)"/>
     <use xlink:href="#DejaVuSans-6f" transform="translate(1944.03125 0)"/>
     <use xlink:href="#DejaVuSans-61" transform="translate(2005.212891 0)"/>
     <use xlink:href="#DejaVuSans-64" transform="translate(2066.492188 0)"/>
     <use xlink:href="#DejaVuSans-69" transform="translate(2129.96875 0)"/>
     <use xlink:href="#DejaVuSans-6e" transform="translate(2157.751953 0)"/>
     <use xlink:href="#DejaVuSans-67" transform="translate(2221.130859 0)"/>
    </g>
   </g>
   <g id="patch_2">
    <path d="M 24.0525 161.202969 
Q 70.43625 161.202969 115.478359 161.202969 
" clip-path="url(#p9981ea3afc)" style="fill: none; stroke: #000000; stroke-width: 1.2; stroke-linecap: round"/>
    <path d="M 111.078359 159.002969 
L 115.478359 161.202969 
L 111.078359 163.402969 
z
" clip-path="url(#p9981ea3afc)" style="stroke: #000000; stroke-width: 1.2; stroke-linecap: round"/>
   </g>
   <g id="patch_3">
    <path d="M 24.0525 128.071719 
Q 70.43625 128.071719 115.478359 128.071719 
" clip-path="url(#p9981ea3afc)" style="fill: none; stroke: #000000; stroke-width: 1.2; stroke-linecap: round"/>
    <path d="M 111.078359 125.871719 
L 115.478359 128.071719 
L 111.078359 130.271719 
z
" clip-path="url(#p9981ea3afc)" style="stroke: #000000; stroke-width: 1.2; stroke-linecap: round"/>
   </g>
   <g id="patch_4">
    <path d="M 24.0525 94.940469 
Q 70.43625 94.940469 115.478359 94.940469 
" clip-path="url(#p9981ea3afc)" style="fill: none; stroke: #000000; stroke-width: 1.2; stroke-linecap: round"/>
    <path d="M 111.078359 92.740469 
L 115.478359 94.940469 
L 111.078359 97.140469 
z
" clip-path="url(#p9981ea3afc)" style="stroke: #000000; stroke-width: 1.2; stroke-linecap: round"/>
   </g>
  </g>
 </g>
 <defs>
  <clipPath id="p9981ea3afc">
   <rect x="10.8" y="28.677969" width="424.08" height="178.90875"/>
  </clipPath>
 </defs>
</svg>
